<mxfile host="app.diagrams.net" modified="2023-10-15T03:46:23.625Z" agent="Mozilla/5.0 (Windows NT 10.0; Win64; x64; rv:109.0) Gecko/20100101 Firefox/118.0" etag="a9mo3fLuIHWF90zydBM-" version="22.0.4" type="device">
  <diagram name="Page-1" id="gmgBAF0B5bskegWVsLzO">
    <mxGraphModel dx="1221" dy="761" grid="1" gridSize="10" guides="1" tooltips="1" connect="1" arrows="1" fold="1" page="1" pageScale="1" pageWidth="850" pageHeight="1100" math="0" shadow="0">
      <root>
        <mxCell id="0" />
        <mxCell id="1" parent="0" />
        <mxCell id="RjolR3DCXdXk4UDOej0u-1" value="" style="shape=image;verticalLabelPosition=bottom;labelBackgroundColor=default;verticalAlign=top;aspect=fixed;imageAspect=0;image=data:image/png,iVBORw0KGgoAAAANSUhEUgAAAlwAAAC7CAYAAACwwkCjAAAAyHpUWHRSYXcgcHJvZmlsZSB0eXBlIGV4aWYAAHjabVDbDcMwCPz3FB0Bc/g1jp2kUjfo+AWbSEnUkwBz2GcgHN/PO7wMHCVIKjW3nEkhTRp3PVRa6NNHkukn0kbs7I0PY/gjVgoasdKaV4wn7w/OGLue0kWobl4Y90IT168PIf8I1pH1trtQcyHwKkQX6Gssyq2W6wjjoDvqsmAubzQHia7+zKXo9vak/4D5QASpB2Q1ADMEdCuoJzS7qFmHoEyevRNdyL89nQg/G+lac8IccskAAAGFaUNDUElDQyBwcm9maWxlAAB4nH2RPUjDUBSFT1OlUioOdhBxyFAVwS4q4liqWAQLpa3QqoPJS/+gSUOS4uIouBYc/FmsOrg46+rgKgiCPyCuLk6KLlLifUmhRYw3PPJx3j2H9+4DhGaVqWZPDFA1y0gn4mIuvyoGXhGkz4cJjEvM1JOZxSw86+ueOqnuojzLu+/P6lcKJgN8InGM6YZFvEE8u2npnPeJw6wsKcTnxJMGHZD4keuyy2+cSw4LPDNsZNPzxGFisdTFchezsqESzxBHFFWjfCHnssJ5i7NarbP2OfkNQwVtJcN1WiNIYAlJpCBCRh0VVGEhSn+NFBNp2o97+Icdf4pcMrkqYORYQA0qJMcP/ga/Z2sWp6fcpFAc6H2x7Y9RILALtBq2/X1s260TwP8MXGkdf60JzH2S3uhokSNgYBu4uO5o8h5wuQMMPemSITmSn5ZQLALvZ/RMeWDwFgiuuXNr7+P0AcjSrJZvgINDYKxE2ese9+7rntu/Pe35/QC3aHLCF6nsuQAADXZpVFh0WE1MOmNvbS5hZG9iZS54bXAAAAAAADw/eHBhY2tldCBiZWdpbj0i77u/IiBpZD0iVzVNME1wQ2VoaUh6cmVTek5UY3prYzlkIj8+Cjx4OnhtcG1ldGEgeG1sbnM6eD0iYWRvYmU6bnM6bWV0YS8iIHg6eG1wdGs9IlhNUCBDb3JlIDQuNC4wLUV4aXYyIj4KIDxyZGY6UkRGIHhtbG5zOnJkZj0iaHR0cDovL3d3dy53My5vcmcvMTk5OS8wMi8yMi1yZGYtc3ludGF4LW5zIyI+CiAgPHJkZjpEZXNjcmlwdGlvbiByZGY6YWJvdXQ9IiIKICAgIHhtbG5zOnhtcE1NPSJodHRwOi8vbnMuYWRvYmUuY29tL3hhcC8xLjAvbW0vIgogICAgeG1sbnM6c3RFdnQ9Imh0dHA6Ly9ucy5hZG9iZS5jb20veGFwLzEuMC9zVHlwZS9SZXNvdXJjZUV2ZW50IyIKICAgIHhtbG5zOmRjPSJodHRwOi8vcHVybC5vcmcvZGMvZWxlbWVudHMvMS4xLyIKICAgIHhtbG5zOkdJTVA9Imh0dHA6Ly93d3cuZ2ltcC5vcmcveG1wLyIKICAgIHhtbG5zOnRpZmY9Imh0dHA6Ly9ucy5hZG9iZS5jb20vdGlmZi8xLjAvIgogICAgeG1sbnM6eG1wPSJodHRwOi8vbnMuYWRvYmUuY29tL3hhcC8xLjAvIgogICB4bXBNTTpEb2N1bWVudElEPSJnaW1wOmRvY2lkOmdpbXA6NThmMDVkNjAtNTU0NC00MmI0LTgzYjctYjJiNGZiYmNiYTlkIgogICB4bXBNTTpJbnN0YW5jZUlEPSJ4bXAuaWlkOjEwYTIwZDgwLTQ3MTQtNDkxNS05YjE1LWRjODAzYzU4MzhmYiIKICAgeG1wTU06T3JpZ2luYWxEb2N1bWVudElEPSJ4bXAuZGlkOjIzMTM5MTUwLTIwMzMtNDBjZS1iOWIzLWM5NDkyMWEyZWVjZiIKICAgZGM6Rm9ybWF0PSJpbWFnZS9wbmciCiAgIEdJTVA6QVBJPSIyLjAiCiAgIEdJTVA6UGxhdGZvcm09IldpbmRvd3MiCiAgIEdJTVA6VGltZVN0YW1wPSIxNjk2OTAyNDM4MjYxNzg0IgogICBHSU1QOlZlcnNpb249IjIuMTAuMzQiCiAgIHRpZmY6T3JpZW50YXRpb249IjEiCiAgIHhtcDpDcmVhdG9yVG9vbD0iR0lNUCAyLjEwIgogICB4bXA6TWV0YWRhdGFEYXRlPSIyMDIzOjEwOjA5VDIxOjQ3OjEyLTA0OjAwIgogICB4bXA6TW9kaWZ5RGF0ZT0iMjAyMzoxMDowOVQyMTo0NzoxMi0wNDowMCI+CiAgIDx4bXBNTTpIaXN0b3J5PgogICAgPHJkZjpTZXE+CiAgICAgPHJkZjpsaQogICAgICBzdEV2dDphY3Rpb249InNhdmVkIgogICAgICBzdEV2dDpjaGFuZ2VkPSIvIgogICAgICBzdEV2dDppbnN0YW5jZUlEPSJ4bXAuaWlkOmVlYzI0MTk1LTQyYzEtNDAwMi1hNTNkLWFlYjQ2MGRmMDU0OSIKICAgICAgc3RFdnQ6c29mdHdhcmVBZ2VudD0iR2ltcCAyLjEwIChXaW5kb3dzKSIKICAgICAgc3RFdnQ6d2hlbj0iMjAyMy0xMC0wOVQyMTo0NzoxOCIvPgogICAgPC9yZGY6U2VxPgogICA8L3htcE1NOkhpc3Rvcnk+CiAgPC9yZGY6RGVzY3JpcHRpb24+CiA8L3JkZjpSREY+CjwveDp4bXBtZXRhPgogICAgICAgICAgICAgICAgICAgICAgICAgICAgICAgICAgICAgICAgICAgICAgICAgICAgICAgICAgICAgICAgICAgICAgICAgICAgICAgICAgICAgICAgICAgICAgICAgICAgCiAgICAgICAgICAgICAgICAgICAgICAgICAgICAgICAgICAgICAgICAgICAgICAgICAgICAgICAgICAgICAgICAgICAgICAgICAgICAgICAgICAgICAgICAgICAgICAgICAgICAKICAgICAgICAgICAgICAgICAgICAgICAgICAgICAgICAgICAgICAgICAgICAgICAgICAgICAgICAgICAgICAgICAgICAgICAgICAgICAgICAgICAgICAgICAgICAgICAgICAgIAogICAgICAgICAgICAgICAgICAgICAgICAgICAgICAgICAgICAgICAgICAgICAgICAgICAgICAgICAgICAgICAgICAgICAgICAgICAgICAgICAgICAgICAgICAgICAgICAgICAgCiAgICAgICAgICAgICAgICAgICAgICAgICAgICAgICAgICAgICAgICAgICAgICAgICAgICAgICAgICAgICAgICAgICAgICAgICAgICAgICAgICAgICAgICAgICAgICAgICAgICAKICAgICAgICAgICAgICAgICAgICAgICAgICAgICAgICAgICAgICAgICAgICAgICAgICAgICAgICAgICAgICAgICAgICAgICAgICAgICAgICAgICAgICAgICAgICAgICAgICAgIAogICAgICAgICAgICAgICAgICAgICAgICAgICAgICAgICAgICAgICAgICAgICAgICAgICAgICAgICAgICAgICAgICAgICAgICAgICAgICAgICAgICAgICAgICAgICAgICAgICAgCiAgICAgICAgICAgICAgICAgICAgICAgICAgICAgICAgICAgICAgICAgICAgICAgICAgICAgICAgICAgICAgICAgICAgICAgICAgICAgICAgICAgICAgICAgICAgICAgICAgICAKICAgICAgICAgICAgICAgICAgICAgICAgICAgICAgICAgICAgICAgICAgICAgICAgICAgICAgICAgICAgICAgICAgICAgICAgICAgICAgICAgICAgICAgICAgICAgICAgICAgIAogICAgICAgICAgICAgICAgICAgICAgICAgICAgICAgICAgICAgICAgICAgICAgICAgICAgICAgICAgICAgICAgICAgICAgICAgICAgICAgICAgICAgICAgICAgICAgICAgICAgCiAgICAgICAgICAgICAgICAgICAgICAgICAgICAgICAgICAgICAgICAgICAgICAgICAgICAgICAgICAgICAgICAgICAgICAgICAgICAgICAgICAgICAgICAgICAgICAgICAgICAKICAgICAgICAgICAgICAgICAgICAgICAgICAgICAgICAgICAgICAgICAgICAgICAgICAgICAgICAgICAgICAgICAgICAgICAgICAgICAgICAgICAgICAgICAgICAgICAgICAgIAogICAgICAgICAgICAgICAgICAgICAgICAgICAgICAgICAgICAgICAgICAgICAgICAgICAgICAgICAgICAgICAgICAgICAgICAgICAgICAgICAgICAgICAgICAgICAgICAgICAgCiAgICAgICAgICAgICAgICAgICAgICAgICAgICAgICAgICAgICAgICAgICAgICAgICAgICAgICAgICAgICAgICAgICAgICAgICAgICAgICAgICAgICAgICAgICAgICAgICAgICAKICAgICAgICAgICAgICAgICAgICAgICAgICAgICAgICAgICAgICAgICAgICAgICAgICAgICAgICAgICAgICAgICAgICAgICAgICAgICAgICAgICAgICAgICAgICAgICAgICAgIAogICAgICAgICAgICAgICAgICAgICAgICAgICAgICAgICAgICAgICAgICAgICAgICAgICAgICAgICAgICAgICAgICAgICAgICAgICAgICAgICAgICAgICAgICAgICAgICAgICAgCiAgICAgICAgICAgICAgICAgICAgICAgICAgICAgICAgICAgICAgICAgICAgICAgICAgICAgICAgICAgICAgICAgICAgICAgICAgICAgICAgICAgICAgICAgICAgICAgICAgICAKICAgICAgICAgICAgICAgICAgICAgICAgICAgICAgICAgICAgICAgICAgICAgICAgICAgICAgICAgICAgICAgICAgICAgICAgICAgICAgICAgICAgICAgICAgICAgICAgICAgIAogICAgICAgICAgICAgICAgICAgICAgICAgICAgICAgICAgICAgICAgICAgICAgICAgICAgICAgICAgICAgICAgICAgICAgICAgICAgICAgICAgICAgICAgICAgICAgICAgICAgCiAgICAgICAgICAgICAgICAgICAgICAgICAgICAgICAgICAgICAgICAgICAgICAgICAgICAgICAgICAgICAgICAgICAgICAgICAgICAgICAgICAgICAgICAgICAgICAgICAgICAKICAgICAgICAgICAgICAgICAgICAgICAgICAgCjw/eHBhY2tldCBlbmQ9InciPz6jXQlMAAAABmJLR0QA/wD/AP+gvaeTAAAACXBIWXMAABYlAAAWJQFJUiTwAAAAB3RJTUUH5woKAS8SAv9aTQAAIABJREFUeNrsnXdAFUfXxh+8gHTpvUpRuqIYe8HeY+/GAnaxokZfja9Go0AsaGxg7z2C2Av2gqIoAtKkCEjvSLvw/eGnb4xc2IV7YeGe3z8x7Ozes7MzO8/OnDlHoqKiogIEQRAEQRCEyGhCVUAQBEEQBEGCiyAIgiAIggQXQRAEQRAEQYKLIAiCIAiCBBdBEARBEAQJLoIgCIIgCIIEF0EQBEEQBAkugiAIgiAIElwEQRAEQRAECS6CIAiCIAgSXARBEARBEAQJLoIgCIIgCBJcBEEQBEEQJLgIgiAIgiAIElwEQRAEQRAkuAiCIAiCIEhwEQRBEARBECS4CIIgCIIgSHARBEEQBEGIO5KivPgGz114Fx7FqRve6fEbVFWaidVDTklNx6KVGzllUyublli2cAb1QIIgCEIskKioqKgQ1cVLSkowdvoixCckceaG+zh1xsY1S8TuQV+9eR+rN2zllE2b1rqhV/eO1AsJgiCIRo9IlxSlpaWxzNWFUzd8485DnP37qtg96P69u2L44D6cssl9uzcys7KpFxIEQRAkuGpLe8dWmDpxJOcG+ugP8WL3sJe6OsPIQI8z9mRmZcPDy4d6IUEQBEGCSxjMdZ6AVraWnLnpiooKsRzopaWksGwBt2Ycb959hDMXr1BPJAiCIEhwCQOuDfQvXr3FvkOnxO6B/9TWHtM4NuPouWM/omLiqDcSBEEQJLhqi4WZCZbMm86pm9936DRevHordg99jvMEtLaz4ow95eXltLRIEARBkOASFuNGDoJT1/acqgD37d4oLy8Xuwe/1NWZU/a8fB2CvQdPUo8kCIIgSHAJa6BvpqTImQqIiU0Qy9mVFmYmWDqfWzOO3ofPIDDoLfVKgiAIggRXbdFUV+OcP9fZv6/ixp2HYvfwx44YBKduHThlk4eXN/h8PvVMgiAIggRXbenbswtGDOnHuYE+PSNL7BqA23xnKDdT4ow94jrjSBAEQZDgEs1A7+oMEyN9zlREVnauWA70GuqqnJtxPHfpmljOOBIEQRAkuISOpCQPbhwb6G/fe4zTF/zFrhH0ceqMEUP6csom9+3eSEvPpB5KEARBkOCqLe0c7OA8eTSnKsTDywcRUbFi1xCWLXBBc2MDztiTnZMLjx20tEgQBEGQ4BIKs6aNg4O9NacqxVMMB3oejwc3juW9vHPvCU6dv0y9lCAIgiDBJQzcOBYTKij4HXbvPyF2jcHRwRYuv3BrxtFzx35ERMdSTyUIgiBIcNUWc1Njzjlu7z96Fs9fBotdg5g5dRzatLLhlE0e272ppxIEQRAkuITB6GED0Kt7R05Vjvt2b5SWloldo3BzdYaEhARn7Hn1JlQsZxwJgiAIElwiG+hVlZtxxp7Y+ESxdNw2a27EOX+u/UfP4tmLYOqxBEEQBAmu2qKmqsK5UBEXfK/j2q37YtcwRg/rj949OnHKJvft3igpLaVeSxAEQZDgqi29e3TCqJ/7c8omDy8fpKRliF3jcHN1hqqKMmfsiUtIhCdFoScIgiBIcAlroHeBqYkhZ+zJyc0Ty4FeVUWZc5sZLvjdwNWb96nnEgRBECS4am1UEwnODfR3HzzFiXN+YtdAenXviNFcm3Hc4Y1UMZxxJAiCIEhwCZ02rWwwY8pYTtm0ZecBvI+MEbtG4rbABWbNjThjT25uPtwpVARBEARBgks4zJgyBo4OtpyySRwHegkJCc4Fpw14+AzHz/pSDyYIgiBIcAkDN1dnNGnCHTODQ8Kxy+e42DWUNq1sMHMqt2Yct/51EOERMdSLCYIgCBJctaW5sSHn/LkOHDuHJ4GvxK6xuPwyBu3a2HHKJncvWlokCIIgSHAJhZFD+6F3j86cssljuzeKi0vErsEsne8MHo/HGXvehITjL+9j1JMJgiAIElzCYNkCF6irqXDGnviPyfAQw1ARzY0NODfjePD4eTx+/op6M0EQBEGCq7aoKCtxbqD/2/8mrtwIELtGM2JIX/Rx4taMo6eXD4qKiqlHEwRBEJxEoqKioqIhGezh5YPTF/w5Y4+igjxO7t8GbS11sWo42Tm5GDd9EdLSMzlj09CBvbDabS716n/xIe4jXJetQ3JKWrVl1yybhyEDenLyPgoKCrF52z5cuXmP1XmSkjxMnzQK0yaO5NRyOEEQ9YPvldtY576zzt+HTRpaRbm5OsPC1Jgz9uTlF8Dda5/YNVjlZkqcS3B9yf8W/K/fpbdJI6Q2YmvJvOkktgiCqHeaNESjl3IsJtT9R4E4dvqS2DUep67tMXbEQE7Z5OHlw2gmh2g45OTmYcOfu2sktn5dNAsjhvQjsUUwJjMrG4dOXEBubj5VBkGCy8HeGrOnj+eUTdt2H0Lo+yixa0BL5zvDwsyEM/bkFxTCg6LQNyqxtXnbPty485DVedLSUljtNhdDBvREkyYSVJFEtZSUlsL36m2Mm74IAQ+eobyinCqFIMEFANMnjcJPbe05ZZO4DvRci0J//3Egjp25RL27wc805GDd5p2sxZaSogLWrnDFgD7dISFBYouomvLyCjx+FoQxUxZg3eadyMjMpkohSHD9ONC7QEpSkjP2vA2NwI59R8WuEbW2s8Kc6RM4ZdO2XYcQGh5FPbyBkp6RhTUbt+Heo+esxdaG1YvRu0cnEltEtSQmpWDZms1wXb4eCYnJVCEECS5BGBvqwY1joSIOn7iAR09fil1DmjZpJOdmHCnBdcMVW2s3eeFp4GtW56mpKmPTWjd0aNeaxBZRJZ+LinDg2DmMmjIfAQ+fUYUQJLiYMHxwH/Tr1ZVTNnl4+aDwc5HYNaZlC1wgLSXFGXtCwiLgtfcI9fIGJrZWrvuTtdjS0dLAprVunEs9RXCLiooKPHn+CuOnL8Yun+MoKSmlSiFIcLEa6F1doKmhxhl7PiZ9gqcYRqE3MuDejOORkxfx8MkL6ukNgJTUdKxc9yeCgt+xOs/QQBd/rF2K1nZWVIlElRQXl8D/RgAtHxIkuGqKkpIC5xy3fa/eht+1O2LXoIYN6o3+XJtx3CGeM44NTWyt3rCNtdhqbmwAz/UrYGNpQZVIEAQJrrqgR5f2GD9yMLcGei8fJCWniF2jclvgAi1N7kTeT0xKoVARHCYpOaVGM1vWlubwWL8czY0NqBIJgiDBVZcsnjcNLS2ac8aewsLPYum4raTIvRlHv2t34Hv1NvV4Doqt1Ru2ITgknNV59jYt8ceaJTAy0KNKJAiCBFd9wLWB/uHTlzhy6m+xa1jdO/+E8aOGcMomTy8fJCalUK/nCHEJifh13Z+sxVZ7x1bYuGYJdHW0qBIJgiDBVV/Y21hirstETtnktecwQsIixK5xLZ47FZYWppyxp/BzEdy9aGmRC8TEJsBt9Wa8C4tkdV63Tu2wbuVCTi1ZEwRBiKXgAoCpE0agg2NrTtnkTlHoOcGjpy9x5ORF6vn1LLZWrPVATGwCq/P6OHXGmuXzoKrSjCqRIAgSXJwZ6Be4oGlTac7YExoehe27D4tdA7OzaYl5MyZxyiavvUfwNvQ99f56EVvxWLp6E2uxNaB3N6xaMhvNlBSpEgmCIMHFJQz1dbCMYzGhjp7+G/cfB4pdI5syfjg6tOPWjKOH137q/XVMZHQslq7ejPiEJFbnjR0xECsWz4K8vBxVIkEQJLi4yNABvTCgT3dO2eTp5YOCwkKxa2jLFrhARqYpZ+wJDY/Ett2H6A1Qh2Jr+VoP1mJr8tifMX/GZMjJylAlEgRBgovrA72OlgZn7En6lCqW/lwGejpwm88tf65jpy/hPsvkyAR7QsIiaiS2pk8ahVnTx3PKNYAgCIIElwAU5OU457jtfz0AvlfELybU0IG9MLBvd07Z5OHlg/yCQnoTiFBsrdm4nZXYkpTkYebUsZgxZQyncnMSBEGQ4KqGrp3aYeKYoZyyyd3LWyzzeS1b4AJdbU3O2JOckia2O0hFzas3ofh1rSdrsbVk3nRMmzgSPB6PKpEgiEaDpLjc6MLZUxAUHIrQ8EhO2FNUVAz37d7Y4b5GrBqcvJwclro6Y/HKjZyx6cqNALRpZY2hA3rRG0FIPH/5Bqs3bEVGZjYrsfXrolkY3L8nmjSRaJD3XVpahoTEJISERSIqOg7vwiORk5uH2PjE78pJS0vBxMgA6moqsLNuARtLC1iYmUC5mSIkJLh/70VFxYiJS0BIaCTehUcgNj4Rn1LSfnjeX+9Tpqk0rFuaw8zUCDaW5tDV1uKUT2dDIL+gEIFBb3D15j2ER374ljZOSVEBZs2N0La1Ddq3bQXLFmaQkqqboT0vvwDRH+LxLiwSEdEfBLYDNVVlaGtpwNhQD9YtLWBjZY7mRgZi1wYkKioqKsTlZt+GRmDqnOWcsmnejEmYMn642L08tu8+jKOnuROBv2lTaZzcvw2G+jqNrq4/xH2E67J1SE5Jq7bsmmXzMGRAzzoXW9LSUli1ZDYG9OneIATHPyn8XISg1yG4ePkmngS+QklJaY2vpaaqjCH9e6Jfr64wMTLglPDMyMzCzbuP4H89AGER0bW+nqWFKfr37ooeXTtAW1NdaM+dTXuvLTaWFti2aRWUmylVWW7HvqM4fOJClWX2bf8dDvbWP/z9c1ERTp67jGOnLyE3L59RX+rfuxt+GTccBnraQu1PFRUVSM/Iwu17j4XSDiwtTDFiaF906dAWaqoqddaWfa/cxjr3nXXyPvzuo1KcBnlbKwu4zpwMr71HOGPTzn1H4WBnBTublmIluBbM/gUvg0MQGh7FCXuKi0vgsd0bOzzEa8ZR2Dx/+QYr1nowGhi+oqSogBWLZqJ3j04NSmylpWfizMUrOH7Wt1Yi63tRk42Dx8/j4PHzsLG0wMypY9GujV29La+Wl1cgOCQMx8/44uHTFygr4wvt2mER0QiLiMaWvw6itZ0VJo39Ge0dW5Hf3j+IS0jEmo3bWWVkKCkpxSX/W/C/fhddO7bDglm/QE9Xq9btIDwiGvsOncLDpy+F2gZ+99gFSUke+vfqhqkTRwpdJHKJJuLWgCePG4ZO7dtwyiYPLx+xfJlwLU7ak8BXOHj8PL3la/jl++T5qxqJrd+Wz29QYisvvwDeh09j6PhZOHj8vNDE1r8JCYvA/GXrMGvRGoSGR6GuFyMSk1KwbM1muLiuQsDDZ0IVW//m1ZtQLF65EZNnuuHxsyCUl1eIfZ+KiY3HopUbWae/+kpZGR937j/ByvV/IiMzqxZ2JGDZms2YPMtNqGLr37b6XbuD0VPmw8PLG5lZ2Y3ymTYRx4a8zNWFU3F9vn7liRs2lhZwnfULp2z6y/sYgkPCSEGxFFtPA19j1fotrMSWmqoyNq11Q7fO7RqE2PoqKifPdMPeg6dEJrQqEyPT5q3Alr8OoKAOdtTy+Xxc8L2OUVPmI+Dhszqt46iYOLguX4/N2/YiJzdPbPtUekYWNm3dxzqUSmW0srWsdsmzMoqLS3Dg2DlMnLGkztpBWRkfZy5exbjpi3Dt1v1GJ7zFUnDp6WphKcdCRZw461vnLzcuMHnsz+hMM44NWmzdfxTIWmzpaGlg01o3tGtj1yDus7i4BLt8jmPRyg31sru4rIyPk+cuY87StYiJjRfZ75SUlmL/0XNw9/KuM0FZGed9r2Pxyo3fHMPFicLPRdix7wiCgt/V+lpycrLo2bUD6yXppOQULPz1d+zyOV4v7SAjMxv/+X0rPHf41MlHBgkuETOkf08M7ufEuYGezaDVWFi2wAVycrKcsSc8IgZbdh4gNcVQbP138w5W7dbQQBd/rF2K1nZWDeI+c3LzsHHLbhw8fl6ky2pMeBcWiQXLf8erN6FCvzafz8fBY+ew79Cper9PAAgOCcfaTTuQnpElVn3qVsAjXL/9QCjXs7WygImxAatzQsOjsPDXDQgMelvv9XHm4hWs2bgdmVk5JLgaOktdnWvtTChMUlLT4SGGMaF0dbQ4F5z2xDk/sZxxZDMw3Lz7iLXYam5sgM1r3WBjadEg7jMzKwfrNu+E//UAztiUnJKGJav+wPOXb4T6PP1vBHDOhzEo+B127DuCws9FYtGv4hKScOjEBaEJ3u6df4Kigjzj8q/ehGL5b+6sk8uLknuPnmPFWo9GIbzFapfiv5GXk4XbfGcs/HUDZ2y6eus+HFrZYNig3mL1LAb3c8Kr4FD4XuVOBH737d5wsLOGkpICKaxKxNamrXtZiS1rS3OsW7kARgZ6DeI+Cz8XYfueQ7hXw/RPlham6NKxLaxamMHYSB8K/0i+nfQpFSmp6XgT8h73Hj9n7auTm5eP1Ru2Yv2qRUJZlq3pQG9uaoz2bVvBzqYFmikpwlBfF5KS/1u+KioqxsekT4iJ/YhnL17XKGyG//UAONhZY8iAnox8/RTk5TB8SF+UlJT8cKysjI97j55XKyg01FXRr2dXyMhUnVZKUVFBaLsqi4tLcOKcn1D8tr7eQytbS8blY2Ljsd7jrxqF05CWlkIHx9b4qW0rmDU3/K4dlJXxEf8xCR+TPuFF0Fs8fPqS9UpOUPA7rN3khbUrXKGuptJg351iLbgAoHOHtpg8bhiOnLzIGZs8tnvDwd6qwQxMwmKpqzOCgt/hY9InTtiTmpYBdy9v/P6fRaSy/iG2rtwIwIY/d7MaOO1tWmL9qoXQ1dFqEPfJ5/Nx9NRF1jNbWprqmD5xJHp171SlUFdupgSrFmbo0aU9XGdNRlJyKi5cvoGLfjcYD0YZmdnYtG0vtmxYCWPDmr8rSkpLWQ30TO8RANAM0NbSQNvWthg9rD+Ki0vw+HkQvPYcYeULd+bvq2jv2ApamuqMhMbUCSMqPVZUVIzklLRqBZeWhjp+GT+sRs7mNeXh05e4duu+0K7XoV1rGDFsFzV10nd0sMXUCSPR2s6qymCr6moqcLC3xpD+PcHn8xEcEo4TZ/1YhRp5Gvgaf3kfw/KFMxpswFSxF1wA4DpzMoJev0NIWAQn7CkpLYWHlw92evwmVs9BTlYGbq7OWLDid87YdO3WfTjYW2P44D4ktioq4HftDjb+uZvVTIiDvTXWr1rIaLDkyn2yXV5TUlTAglm/oF+vrqyTbUtISEBPVwvzZ0zChFGD4XPkDC743WBUx/EJSTh4/ByWL5xZ453X7yM/4NbdR4zKDuzbHYvnTkMzJcUa/VbTptLo0aU92ju2wvEzvvA5cobRfb6PjMH9x4EY9XP/Rtu/Tl/wr7aNDerbA53at4GpiSEkJXkoK+PjQ9xHhIRF4M69J98FIu30kwOj2beaOOlbW5pj6XxnWLc0Zx2cl8fjwcHeGq3trBD2Phpbdx1k7JN49dY9tLa3wuB+Tg0yVpdY+3D9E67FhHoa+BoHjp4Tu+fQqX0b/MKxyPse270RG/9RrPtHeXkFfK/cZi22AGDk0H4NRmwBwIe4BFbLa63trOCzYwOGDuzFWmz9G1UVZbi5usB93XKoqSozOsf/egBu3nlYozhdXzY+PGc0qzZ2xEAsXzizxmLrn8jKyGDaxFH4ddGs75Ygq+LO/SfIzRW/TUVfAwP7n/XG4nnT8FNbe6irqUC5mRLU1VT+f5ZpBI7s9cClE3swedww2Fm3gJ11S0bPn42TvqQkD+NGDsIuz7WwtbKoVSYECQkJWLU0w06P3zB1wghG7aCsjA/vQ6c55WNGgqsGWLU0w8I5Uzhl0679x0WyG4nrzJ8xCbZW3HGqLi0rE+tQEeXlFfC7eht/bN1TI2fePQdPijSUgTApKS3FqQtXGC+t9HHqDM/fV6C5saHQbJCQkEDXjo74c8OvMDTQZXTO8bO+SKxBCIXsnDy8fB1SbTlHB1tMmzhKqPELmzSRwKB+PQQu//2bd+FRiE9MEqu+19zYAHu3rcfIof0gKyNTbbvR09WC68zJ2OnxG1RVmlV7/cTkFBw7fYlRv/6aWH7h7CmQ/4c/Ym1p2lQas6aNw5J50xmJruSUNJy+eAUlpaUN7nmS4PoHE0cPRdeOjtyaXRHTgd6NYzOOz14EY//Rs2L3HPh8Ps77Xqux2AK+LHvt8jmB/AYQT+fFqxD4XrnFqOyA3t2waslsocz4VIaNpQVWu82FjpZGtWVjYhNw4zb7Wa7UtHRGPpPDBvVhNICzhcfjYdyIwWjv2KrasoWFn4W6M5PrGBroYtPapTA3NWZ9rpycbLWxt/h8Ps7+fZXRbNHXxPIjhvQTSZopHo+H4YP7YK7LREai69qt+wh/H93gnikJrkoGegUhqvfaEhH1AZ47xE90WbUww8LZUzhl0+79J4QSjLAhia0Lfjfw5879td6mHvDwGY6fuQQ+n8/Z+y38XIS/LzPznbK3aYn5MycL9Uu/MlrZWsJlyhhGg9DlG3dZz3KlpWdWG+NIS1MdZs0NRXaPSkoKGNKfWYLgmNgEFBUVN/q+J/f/O+iFOXNaqUi/85BR2Uljfsagfj1Emkydx+NhxJB+6NuzCyPx/feVWw1ulosE17/Q0dLgXEyoU+f9cef+U7F7FhPHDEXXTu04ZZOnmMw48vl8nDjnJxSx9ZXjZ/04PUMRFR2Lpy+CGQ2GzpNHQ0NdVeQ2SUhIoE+PzujVvVO1ZeMTkvDk+StW12cSUFJDTRWqKsoivc/WdlawamHGSCTk5jd+P66hA3qKNAtDRUUFHjx+gbT0TEYfF6OHDaiTBOpysjKYMn4Eo1ndJ89fIS4+kQRXQ2dg3x4YOrAXp2zy8PJGdk6u2D0LN1dnVoH7RE1EdGyjX+b9Krb+8j4m1IjjhYWf4bHDh5P+XHw+H7fvP0Fh4edqy/br1RVtWtvUmW0yMk0x+uf+jLIxiMKxPCMzC1nZon33qKo0g611iyrLqKkqQ01FGcXFJY26/8nJyaJ3904iFTjpGVmMAjt/cZIfXCcfF18xNtTDsEHV7wpPS8/Eg8cv6jypOwkuUQz0851hoKfDGXvS0jPhLoZR6Lk443j6gj/u3H/SKOu7rKwMB46dE7rY+kp8QhJ8jpzlXOTwjKxsRqlM5ORkMahPd6EFu2SKmakx2re1r7acKBzLk1PSEBkdK9L74/F4MGtuBGNDPXRq3wbTJo3ExjVLcGSvB+74HsWz2+dw/cJB7PBYw6n3sihwbG0Ls+ZGIv2N95ExCH0fVW251nZWaOdQt/lOJSQk0KVjW0Yi72VwSIPwDSXBxeCrkmuO2zfuPMR53+ti9ywG9OmOnwdyK/K++3ZvkX/11wfb9hzG3oPMc+lJSvIwdsRAxrvpvrbjo6cucsqfKyLyAyKiPlRbrn1be5jVwIm51rMesjJwZDDwsXUsl5dnlsP03KVrIk+tMmxQb5w7shPbN/0Hc6ZPQB+nzrBqYQYlJYU6Wc7iCtaW5iLNLcvn8/Ek8DWjsk5dO9RLpg09XW1GO9XfhkYgLqHhLCtS4NMq6NiuNWZMGcutL/HMbBR+LmK1PfvhkxcI5diOju6d28HCzIRx+bkuE1lFpq4LDhw9iyXzpzeqNs9kSe2fYuvXRbMwuH9PWFoEYL3HX4yF2ukLV9DazlqkfipMqaiowMvXzDZDtLazFmpoBDbYWbeAqkqzav2uoqLj8LmoqNowAsAXh3g5Odlqn3tQ8Dt47TmM5QtniHyjgLgj6jyjObn5ePvufbXlVFWawa6aZV5RfmC0trOu1ne5sPAzIqPjGkxuVhJc1TBjypiGPYB+LoKHl0+NYvSIiv69u7ISWwCwY+8RRvGC6gpNDTV4rF8utv1CWloKq5bMxoA+3SEhIYHeTp0R/O49LjCcgc3NyxdKWhphkF9QiIjo6me35ORkYWttUY9tTh36utrVCq7ImFhkZeVAVkeGUTvW19VmNLt35eY9JKekYdGcqbBsYdogI31zHRMjfejrijb9VdKnFMQymBUyNzWu11RcLcxNvkXTr4rQ8EgM6tujytRCXIGWFBs5Htu9OSW2tDTV4Taf3VKt37U7nEpqDXxx5ldSFM+k1kqKCli7wvWb2AIAaSkpuEweDXubloyv8zUtTX37c6WlZyCWwW4nfV1taGqo1Zud8nIyMNCv3n8pITEZqQx2nwGAmooyWttZMbbh1ZtQTJu3Am6rN+Pl6xCUlpbRS1aIGOrrijx/Y2R0HKOZbGND/XqbzQUAdVUVaGsyi0H3mWM+oSS4xBC/a3fgd+0O94QKC5+AxKQUzu0KHD9yMHp0aS+2YmvD6sXo3aPTDzMcGuqqmDl1HCsh6n89AGcuXqnXnUbpGdlISU2vtpyOlgYU5OpvOU1aWhrqatU7EpeV8ZHE8COLx+OhU/s2jNPrfL1+wMNnmLlwNboNHI95bv+F79XbSE3LQHl5BYiao62lUev0UFVRUVHBOIuCvq52vfrOKSkpMBKfGZnZDWYHPy0pNlI4KVRGDUH3zj+xOsfDy5uVX5GoaWnRHIvnTRPLNqWmqoz1qxZV6XfVppU1xo0chL0HTzG+7pGTF2HVwqze/LkSWYiTvPyCeg22qMlwe35cAvOdiq1sLdG1o2ONYv2VlJTiaeBrPP1/J2w1VWX06t4JXTs6wqqlGadCujSUPiZKkVNUXMzo4wL4knqpPoVMcXHJlxnlsKrLfUpNQ2Z2DquNOyS4CKHiscOHW0LFvDkWz53K6pzDJy/i4dOXnKpXroWoqCt0tDSwbtXCapefeDwexgwbiOCQ8G+DcHXk5uVj+57D2LLh13pJcs0ktQ3wJcZVQwkHkl9QCD6fz2jwlpOVwaSxw/DiVQijJNbVzTacvuCP0xf8AXxJT+PUpT26dnSEZQuzBuFnU5+oq6qIXMQkfUpl+LHr0yBiDpaV8ZGfX9Agni8tKTZCjpy8iIdPXnDKpmUsQ2yEhEVgx94jnLqHuS4TYW9jKXbtydBAF3+sXcrY10dJSQGL5kxlFC36K+8jY7Br//E69+cqKSlBekZmo3tmObl5rPyrbCzNMXOq8Hdkxyck4dCJC5g271d06T8Wsxatwd/+N5GUnELLj5WgzaLP1ITc3PxGGUCbScYELkCfG41LwfuAAAAgAElEQVSMt6Hv4cVBoWLHwpn669cVl+jYrjWmThghlmJr81o31gl0mxsbwGXKGGz8czfjUBH+1wPgYGeNIQN61tkOuPLyCvD55Y3uuZXzy1EB5oJGQkICwwb3QWZWjsiStJeV8fHi1Vu8ePUlwKyaqjL69uyK3j06waqFqVjF2hI4IEuKtg745eWczmdam/tqCNAMVyOjMQiV7bsP411YJGfuoWlTaSx1dRG7ttTc2ACe61ewFltfB/A+PTqjf69u7J79nsOMIr4Li5KSUiQzXGJpSCR9SmWdAkdaSgrTJ4/CjCljRT7wA1+WH0+c9cXUOcvR++cp2OC5C29DIxqlIOAKObl5SGuEM7pM3QJIcBFCY9uuQwgNj+KMPTIyTVkLlfuPA3H09N+cqtdlC1xgqK8jVm3J2tIcHuuXo7mxQa2e//TJo1hdIzcvHz5Hzog8qvlXyivKG+UMV02RlpKC8+TR2LJhZZ2m0MnNy8fFyzcxdc5yDBk3C0dO/S2WuWNF3t7Ly0WSsosgwSVW3H/0HMfOXOKUTW7znVkJlfyCQnhybIZuQJ/uGDqgl1i1JXublvhjzRIYGdQ+IKm+rjYWzZnKKlVJUPA7/OV9DEVFxdSx62NQaCKBjj854MT+LZjjPKHO482lpKbDa89hDJ84FweOncPnoiJ6KAQJLoIb5BcUcm4pcWDfHhg6kJ1Q8fDyZryDpi7gYuJsUeNgb42Na5YINcJ0uzZ2mDBqMKtzrt66hxt3H9ZrfC5xR1ZGBtMmjoTvqb1Ys3yeyBMq/5vcvHzs8jkO12XrERMbTw+EIMFF1D8eXj5ITknjjD262pqshcol/1vwvx7AqXp1c3UWuzhCg/r2EHpoBh6Ph1E/D4Cjgy3jc8rK+Ni26xBCOOTLJ64oyMthSP+eOLl/K/xO78O8GZPqNObRqzehmL34N1ZJuQmCi9AuxQbOpSu34H/9LqdsWurqDAUWCW7jPyZxboZu4pih6NqpHTUwIaGq0gwLZk3BopUbkMYw7UxuXj527D2CjWuWQF1NpV7tl5TkYc/W9Whlaym2z1BCQgI6WhqYMn44fhk3DOkZWXgS+ApXbtzD67ehIvUNysjMxuoNW6sNvEsIB3ublti6cRWrrCBE9dAMVwMm/mMy94TK6KHo2tGR1TkeXj4oKuaOv45VSzMsnD2FGpiQaWFugllTx7E6Jyj4HQ6fvCCynWtNJJqAx6v+NVhWxkd5OTnX/1N8aairYkj/ntizdR0eXD2FAzv/wJTxw2u0q5Wp6Np78CRjwU5U0t6bNGG0A5XPL0d5BbV3ElzENzy9vDnlWGzV0gwL57ATKgePn8eT5684Va9uYhgCoq4G6d5OnTGwb3dW5539+yr8bwSIxJ9LWloKOtqajMp+4tCyPdeQkpKEnU1LzJsxCSf3b8Xdy8ewb/vvmDJ+uFCXH4NDwnHu0jUKHVFDmikpQoNBPs7snFzk5uZThQkZWlJsoBw8fh6POSdU2PltvQkJx1/exzh1D64zJ8PWyoIamIiQk5XB1Akj8TY0gnES3bIyPrwPnYZ1S3OYmhgK1R4ejwdZmabMBBfDHHQEoKggDwd7azjYW2PejEnIyy9AaHgU7j8OxK2AR8jIzK7xtX2v3kav7h1FNpPWmGkqLQUZBu09MzsHufkkuIQNzXA1QIJDwjgqVFqwOodry6GdO7TF5HHDqIGJGGNDPSyeM5VVcM3klDRs3rZP6PG5pKQkoaSkyMyGT6ms0uUQ3wuwn9raw83VGVfPHYDvyT2YN2NSjTZopKVn4gHHUpc1mA8eOVnIy1XvX1tY+JlxkmuCBFejhnNCpX0b1kJly18HERYRzZl7kJWVgdt8Z2pcdUSHdq0xaczPrM4JCn6H877CX04y0me25BX9IR75BYX08Go76DSRgK6OFqaMHw6/U/uwd9t6xnk6v/LydQjyGkjCYi4h07Qp9PW0GZUNj4ihsCwkuMSbLTsPIDwihlNfTGx9ngIePsOJs76cqlc3V2fo6WpRA6sjeDwexgwfCAd7a1bnHTx+Xuj+XIYGuoxm2z4mfUJqGn31C1t8tWllg50ev2HyWOYCPDEpBVkNJGExpwSXTFPoMYyxFxObgM+fKegsCS4xJeDhM5w459eghUpObj7nZugG93PCkP49qYHVMepqKpg1bRyrSOZlZXwcOnEBH+IShGaHproqozQ2mVk5ePPuPT04EdC0qTScfxnDeEPFx6RPSM/MooqrARZmxozKhb6PQmJyClWYECGn+QZCbm4+3Ld7c8qmIf17YnA/J1bneHp5c8o3QE9XC0tdaSmxvmhtZ4WZU8eyEuHxCV/itm1YvQSqKs1qbYNyMyUY6uviQ9zHassGBr3BwL49ICcrU+d1VVJaCvdt3ggJi4CWpjpamJtAX1cbutqa0NfVhry8HBTk5SAhIcH62nw+H7l5BfiY9Akf4hIQGh6Ft6ERaO/YCvNcJtbommyRk5XBxNFD8fzlG0ahH7KyaYarJujrakNVpRkyq5khTEvPxOu3YfW2OeFj0icsW+MOSR4PJsb6MNDTgamJIdTVVKGnowU5WRlGGwBIcBGs8djhg9S0DO4IFR32QuWC3w1cvXWfU/XqNt8Z8izy/BHCRUJCAoP790RwSDhu3HnI+LzAoLc4+/cVOE8eDR6PVysb5ORkYW1pjnuPnldb9umLYERFx8LOpmWd11VcfCIePXuJtPRMRMXE4dHTl5WW09XRwi/jhmHEkL4Cr5Wdkwvfq3cQEvoe4ZEfkCRgJkNbUx2fPxexyoVZ2/eKVQsz3Euv/lkUFHymDlQDdHW0YG5qjGcvgqste+f+E/R16lIvAVCfPH+FiKgPAL7MtlUqYCR5aGHeHKuWzoFFA9i1SkuKDYALfjdw9eY9Ttm0bIELq6/8uIREziWmnjxuGDp3aEsNrJ6Rk5WB8+RRrOM1HTx+HncfPBOKDe3a2DESFYWFn3H5RgBKSkvrtI4qKirw4PELRjM/2Tm5MK8m72F5eQVu3X2EO/efChRbABAR9QEpdfih17SpNLS1NKhTiBBFBXm0aWXDqOyrN6F4HlT3KZVyc/Nx5/6TasuVlfEhJysDbQ31BlH3JLg4Tmw8N4VKp/ZtWJ3jvt27zgepqrC1agHXmZOpgXGE5saGmD5xJKtQEWVlfOzaf1woiY2NDPQYx1+7dfcR3kd+qPP3wMXLNxiVtW5pBmND/WoH3RbmJtVeKzklDW/r0G+tvLwCJSUljMqSMBP9B0ZZGR9/+9+s8yCoAQ+fITDoLaOyjq3toKjYMHLekuDiOB5eXBMqFqyFyoFj5xhNX9clbuS3xTn69eqKUT/3Z3VOfEISdvmcqHW4BkUFeXTv/BOzr++8fOw9eLLOBiE+n48LftcZJ6h3dLCrdglISkqScdy8G3cf1tm9lpaWVutbBHxZBpaTk6FOU4sPnPZt7RmVfRr4Ghcu36izEBEpqek4ffEKo7JycrJo19auTnwMSXA1cvYfPdvghcqrN6HY5XOcU/ewcM4UWLU0owbGMXg8HiaPHQZ7lv5RAQ+f4fiZS7WOz9WhXWs0NzZgPAidPO9XJylmnr98g0tXbjMqq6OlgR5d2jMqa9nCFBrq1ad5efHqbZ0tKyUmpwj01/kn+rra0NRQo05TQ+RkZdDHqQvjGeUjJy8ynnGq7cfFuUvX8D6SWeijrh0dYWZi1GDqnQQXRwkKfofd+09wS6jMngKrluaszuFaCIguHR0xcfRQamAcRUNdFTOnsgsVAQDHz/rh+cvaiQI9HS0M6NOdcXlRxAT7NzGx8fDY4YPCQmYO4k7dOsBQX4fZ/epqM1pGLSvjY9+hU/iY9Enkg63v1duM/NSsW5pBpVkzkdkiDrkE2znYoW1rW0Zlc/PysWnbXqEs3wuioqIC/jcCcPT034zKS0ryMKBP9wa1U5EEF0fhmt9W107tMHEMO6HiuWP/t10mXEBBXg7LFlBiaq7TppU1xo0cxOqcwsLP8NjhU6sBQUJCAv17dUUL8+aMypeV8bHxz90iS6ackpqOTVv3Mc45qaOlgZ8H9ma8a1NOVga9undiKPwSsMvnOHJy80T23NnM5LV3bAUpKfab7JnmzhSHXIJKSgoYO3wg41mu+IQkLF29GSFhESIRW08DX2PbrkMoK2PWl3p17wQHlhkKSHARP+Dh5YOI6FjO2KOoIM96KfHOvSc4df4yp+rVzdUZOuRoy3l4PB7GjRzM2KfqnwPC4ZMXUViL6NhamuoYP3IQ40GorIyPP3fux679J/C5SHhRuWNi47HsN3cEBb9jfM6Iof1gbKjHWtwyjfZ/485DrNu8k9EMFNvB9snzV1i1fgujmTwHe2u0srWs0W8xzZ1ZWPgZ78IiG31qm7atbdG/VzdWfWzJqj8Q8PAZysuFUzfl5RW4dusBVq3fgtw8ZiJXSVEBY4YPbHBxuEhwcYw795/g9AX/Bi1UsrJz4LGDWzN0Qwf2wsC+PaiBNRAU5OUwe/p41gLZ/3pArf25enbryGoQKivj4/CJC3Bdth5vQyNqNRCVlJbC9+ptzF78G96FRTI+z9HBFkP692TtPKymqoJBLPrFvUfPMWPBf/D4WZBQBtyS0lKc972OJf/5g/FgO6hvD6ipqtT4N5nG3Tt2+hJCWDyDhoiMTFP8Mn44q5AsGZnZWLHWA547vGstvjOzsuG5wxv/3ezF+PkDwLiRg2DVwrTB1TcJLg6RlZ3LOZ+noQN6sfJrAb7M0An7K7g2GOrrUGLqBkhzYwO4TBnDKlQEAJw8dxkvX7+r8e/KyDTFXJeJrPM8vnoTiqlzlmPxyg0ICn7HSvQVF5fg7oOnmDzTDes270RGZjbjc5UUFTDHeWKNo+47devAajYxITEZrsvXY+7S3/D85RuUlpax/s3Cz0Xf7nfT1r0oKWG2E7u9YyvWM5//Rp2hWEtOScOC5etx6MQFpKSmf3uefD4fH5M+4W//m/jP71uRmp7RoPuZsaEeViycyTrF1pmLVzF0/Cx47T2CxKQUVrOBGZlZ2H/0LEZOno8zF68yXkb82gbGDBtY64DH9QFFmucQHl7enBMqbH2ezl26xipieF2w1NWlwU09E198qvr06IxXwaHwu3aH8Xm5efnw3OGDLRtXQl9Xu2aDspoKViyagaWrNzP2ofrKw6cv8fDpSygpKqBNKxt06dgW+rraMNT/X5LssjI+4j8mISomHs9evMaTwFeMRcd3L3BJHhbOmQIbS/Ma17OCvBycJ4/Gu/BIVu+fwKC3CAx6C2lpKTjYW6Odgx3MTY2hpakGVRXl78omfUpFZmY2Qt9H4Wnga4S+j2I1yAJfNlTMc5lU66jnX5OVM/n93Lx87Nx3FDv3Ha30uJamOvLzC6Cp3rB3TDo62GLhnCnY+OduVs+lpKQUR05exJGTF6Gro4UuHdqibWsbaGmqQ1db81u5/IJCxMZ9ROj7KDx4/AJhEdE1fnaL506tl8j3JLgaEdwUKs5o2lSacfmY2ATOzdBNnTACHdu1pgbWQJGRaYpZ08YhIjqW8Vbxr23R+/BpLF84s8Z5D5sbG2LdygVYs3E7a9H1dbC+++Ap7j54KpqXtyQPS+ZNx8A+3Wsdh6iFuQlmTx/PesD9Oug+DXyNp4GvRTdQSfIwe/p4RsFaq+NrsnImuTOrIyU1HekZ2WhubNjgP24G9umO4uIS/LlzP+s2AABJySk4fcFfZC4xhga6WLdyQYOua1pS5AAxsfEcFSoOrM7x8PKuk7hETLG3scRcl4nUwBo4WprqWDDrF9ahIvyvB8Dv6u1aOT7bWFpg81o3xvG56uxL+f/F1vDBfYSytPJ1wJ3rMpH1Em5d3OvKJbMxuJ+TUAJcqqurwta6hdDsS6wiNVJDgsfjYcSQfli5ZDakpaU4ZdtXsWVjadGg65gEFwfw8PJp8ELF+/CZOgmMxwaKJt94aNPKGmOGD2B93t6Dp2rdLs1NjfGX51p069SOE3WhpqoM93XLMXJoP6H6sfB4PIwfORhL5k3njOhSUlTAupULhSa2AEBaSgr9enYVWkJuUccnq1NB0EQCg/s5YafHb5zZ0e3oYIud7msavNgiwcUB9h063eCFysvXIdh78CSn7mHR3KloadGcGlgjgcfjYdTPA+DoYMvqvK9peGrrG6mhroo/1i7FwtlT6vXr39HBFt5eG9G1o6NI0pnweDyMHNoPWzeuqvcBt7WdFXx2bEAfp85Cv9c2rawxYdRgoVwrJTUdRUXFjaavSUhIwMHeGgf+2oRe3TvWmx2Skjz8Mn44tmxcCV0drcYhaOlVXn+8fB2CfYdOccqmxfOmsRIq5eXlnFsO7d75J0wYNYQaWCNDVaUZFsyawigdzT8JDgnHTu+jtYrP9XVmZOKYoTh7aAecunao01kgNVVlrFk+D9s3r2YcSb42A26Hdq1xeI87Rg/rX+ezXV/v9a8/14rMX4fH42HS2GEY2Ld7ra/1MfETioqLG11/01BXxcY1S+G1eTXMmtdt+pzWdlY4sHMT5rlMhKxM48mZSU7z9UR5eQXct3tzyqYeXdpj/Eh2X32eO3wQFRPHmXtQUlKgaPKNmJo6d1+//QBtWtkIZWlKT1cLm//rhpjYBJw454erN+/VaIchE7Q01TFh1GAMGdALCvJydSxwleHm6oKxIwbj8MkLIr3Pr/c6feJI9OnZpU7uVU5WBisXz4amuhqOnv67Ro7iwJcQB1nZuVBuptTo+luTJhLo+JMD2jrY4mngaxw99TdevQkVqdCaNnEk2rWxa5BhH0hwcRQPL29Ef4jnjD1KigqslxJv3n2EMxevcqpe3eY7U1LbRoyEhAR6de+El69D4H89gPF5ZWV8bNt1CPq62qzjawmyw9TEEKvd5mLRnKkIDHqDy9fu1ji8wz9RU1VGt07tMLh/T1i1MK3XgUdCQgKG+joiuc+v99q3Z1cM6tsdpiaGdX6vTZtKY47zBPTs1hE+R87g4dMXrIVXckoasrJzYGKk32j7nbSUFLp2dESXDm3xKTUdd+8/wdWb92sc3uGfmJsao2/PLujbswu0NdVFslTOmfdXRWPPXcBBbt59hF//68kpm37/zyL069WVcfnMrGyMnbYImVnZnLmH4YP7YOWS2dTAiHqjtLQMKWnpCA2PwvuoD3gXFom8/AJ8iEv4QaCoqSpDW0sDWhpqaGlhCuuW5jA3NYJys2Zo0oTbgw6fz0d6RhZiYhMQFhGN8IhopKRloKCgELHxiZUKq6/3am9jCQszE5g1N4JyM0VODbC5ufl4GRyCV8GheBceiY9Jn74LQistLQUTIwOoq6nAzroFbCwtGswzEwWFhZ8Rm5CIkNBIxMTGIywiWmAbMDbUg7y8HCwtTNHc2BA2VuYwNtAT2uYFElzED2RkZmHc9MUNXqisWOuBWwGPOXMPxob6OLF/C6SlpKiREQRBEJyDnObrGA8vH06JLWNDPbi5svN5On3xCqfEFvBlZyWJLYIgCIIEF4EzHBUqUlLMXfmiYuLgybFdidMnjcJPbe2pgREEQRAkuMSdyOhYzoVP+CJUWrE6x327N7i0Ct3azgqzp4+nBkYQBEGQ4CK+LCVySag42FuzFip7D55CUPA7TtWrG4WAIAiCIEhwEQCw58BJzgmVpSxDQDx/+Qbeh09z6x7mT4eFqTE1MIIgCIIEl7jzPOgNfI6c4ZRNbq7OrIQKn8+H5w5uLYc6de2AsSMGUQMjCIIgSHCJO2VlZfDgWDR5p64dMGb4QFbnuG/3RkxsAmfuQUVZiaLJEwRBECS4iC94eO3Hh7iPDVqoXL/9AOd9r3OqXt1cXaCupkINjCAIgiDBJe58ESrXuCVUFrATKmnpmZzbWTlyaD/0cepMDYwgCIIgwSXupKZncFOo9GAnVDy8vJGdk8uZe2hubMg63yNBEARBkOBqpHh6+XBMqBiwXko8dd4fd+4/5VS9urk6N8oM8gRBEAQJLoIlJ89d5qBQcUGTJswfdUTUB87tSpwxZQwcHWypgREEQRAkuMSdiKgP+HPn/gYvVLi2HNqmlQ1mTBlLDYwgCIJosEhSFQgPd46FgGjb2pa1UNm1/zhevQnlzhdBEwkKAUFUS35hPiLjIpGQkoDIxEhEp0QjPT8dCQUJ+Fj0ERbyFtCU14SmgibMtc2hr6kPPQ09mOiZQF1FnSpQCNx6egu9j/Wu9JiTkhNubbgFCQkJqiiCBBdRO/7yOY7Xb8M4Y4+EhARrB/Onga9x4Og5TtXr0vnOMDUxrLff977ojRm3Z1RZJnh+MOxa2FEnqGMqKirwJuINLj++jM1Bm5FXkSew7Mfcj8BXt8rI748NVhuM8R3Go3PrztDX0qeKrSFBkUECjw1vNZzEFkGCi6qg9jwNfI2Dx7glVJYtcGElVEpKSzm3lNi7RyeMHjag3n4/JiGmWrEFAKmZqdQJ6piE5ATsuLADHmEetb6WX4Yf/C77AZeBPPc8KMgpUAWzhF/Ox+k3glN/2ZnRBwlBkOCqJSUlJZxbSuzdoxNG/dyf1Tke270Rl5DImXtQU1Vhne9R2APIn2f/ZFQ2MT2ROkId8uLdC0zYPwERJRFCve5ordEktmpIUmoSgj4LnuEyMzCjSiJIcFEV1A4PLx/Ef0zikFBRhpsrO5+nq7fu4+Llm5yqVzdXZ6ipKNfb799/eR+7YnYxKhubEksdoY54G/kWjrsdRXLtbi27UQXXkKj4KIHHuih0gZa6FlUSQYKLqqDmXLl5j3NCZdkCF6iqNGNcPiU1nXP5HkcPG4Be3TvW2+/n5udi5bmVjMu/THhJnaGOnsvc/XOrLOPVxQvdWneDvqY+FBUUIcmTRGlZKfIL8vEp/RPeRL3BgYcHcDP7x37b0rAlVXIN6dGuByraVVBFEAQJLuHzKSUNnhzzeRo9bAB6dmMnVNy3eyM3L58z92DW3Kjeo8mfvH4STwuYx1Lzy/BDcUkxmko3pY4hQh6+eogH+Q8qPaYpoYlbrrdga/5jCBRpKWmoKqtCVVkVVmZWGNlrJB69foS1F9YiIDfgWzlDHUOqZIIgSHBxDQ8vH04JFXNTY9bhE06c9cW9R885Va/LFrjU626m6IRozLo7i/V5WTlZ0NbQZn1eSWkJIuMiEZkQiZikGIQnheNT/idE50VDUkISJoom0FPSg6WeJYy0jWCobQgjXSMoK4puuTUjOwNJaUn4mPIRiemJiE+NR2RaJFILUhFREAElnhIM5Ayg30wf5lrmMNUxhaWJJcyNzCEtJS0yu049PCXw2IaeGyoVW5W+9CQl0a1tN/hb++OI/xHMDpgNANDV0GV0fnpWOt5Fv0NobCjCEsPwLuUdIgoioC+jD0MFQ1hqW8LayBo2pjawMLag7AgsSUpNQviHcITFheF98vtv9WskYwQjJSPY6tuihUELWJpYwlTfFFJSUoyvTc+OIMHVwDh+hntCxW0+u1mhsIhobPnrIKfuYda0cXCwt6633+fzq3aUH6szFqeSKx/0M3IyWAmuzJxM+N73hcddD4SWCI579qb4DZAOIOb7v88znYfFoxfDRM9EaPeflpmGSVsm4Xr29WoqCl9szgYQ978/Oyk5YdXQVejRrofQRXMZvwxHE48KPG6kZcT6mnKycpg5Yia0VbXx9/O/IScrV2X5D4kfcOz6MawJWlPp8Y8FH7/MjKYACP7yt8Fqg7F2zFo4WDlUa09sUixMNlb+PJdZLcPmOZv/J0pSkvAi7AUehz5GyKcQBGYFwr2PO8b0GQPZJbKCxfTvGVBVVq364yE3C+3Xthe4KeH5rOdwtHGskd0Cm1Q5H6/CXsH7mjf2fdgnsH4fFTwCkgEEfvmbg6wD3Hq6oX+n/mim2Kzenh1BMIEizbMkLCIaW3dxUKi0YidUuBYCop2DHZwnj65XG+69uIfdMbsrPfbf1v/F1B5TBZ6bmsU8NMTd53dhv8YeU69PrVJsVcXO6J0o55cL9f4TUhKqF1tVcCf3Dnoe7YlDvoeE/mwKCguqPB4aW7N6lJCQwM9OP+PQikNV/rbnMU80/6O5wAFbEH4Zfmizqw1OXz9dbdmYhBjB/cOiHQAgLikOvx/8HXrr9TD03FBsDt0M/0x/pFakwtLYEjJNZTBMY5jA6+QWVJ/j9eytswLF1m/2v6GtdVvWdlf5To0Jw5TNU+C421Gg2BJE0OcgjLs8DqkZqfX67AiCCTTDxRKuOZi3a2PPWqjs3HcUb0LCudMIJXlwq+do8jl5OVhxbkWlxxQlFOE82BlJaYJ3oyanJzP6ndPXT2OsX+3TFGlKaEJfW7hBOuM/xQvlOtNuTkPnVp1hbmQuNNuq849b+GghVBVVMbTHUCjJKwntd5PTkrF031KcSD5Rq+uM9RsLAy0DdGwl2Mfybcxbgcf0NPVw5PIR/HLtF4FlzAy/hF5oY9gGF9MuVt7O83OqFt2fEjDzzsxKj+nz9DF7+OwfZi+rstvC0ELgMX45H34Bfhh2YVit6lZRQhEGOgb1+uwIggk0w8VWqLx7zy2hwtLB/PGzIBw6cYFT9erm6gwTo/qN8H3i+gkEfg6s9NiOPjugq6lbpd9UXEpctb8R/D5YKGILAKZYThG6k35kYqTQrhUYGihU22SaymCS3qQqy0y+NhnmK8yx/eR2vHz3stpZsepIz0rH+K3jaz1gf2XtubUoLSut9FhFRQX83/kLPHfm4ZlViq1JepOg2uzLUqGpjqnActl52VXa6OMneOZ75887oaWmxcpuQRsRKioqsO/CvlqLLQCY1XIWZJrK1NuzIwjGYzZVQcMVKstcXVgJlaKiYs4tJfbt2QUjhvSrVxui4qMwJ2BOpcccZR0x3Gk4AKCZgmAfkTeJb6r9nQPXDgg8dnLQSbS3bQ8NVQ3INv3ig1NUXIS8wjwkJCcg5EMIDjw68G2X3k8tfhJ6PTyKevTt36vtVqOrXVe0NGkJFUUVyMnKgcaAXi4AABC/SURBVF/Ox+eiz0jLTENgaCBcLrsITKeTnJksdPsmdJ2AoyePVlkmtSIVCx8tBP7/VpZZLYOTvRNszWyhq6XLvK8UF2H1gdXf7WL8JxP1JmJ2/9mwNLGEkoISSstKkZGdAb8Hft+c8P/Nzeyb+PDxAyyMLSoVd5WFqvjWvoqrbl997ft++3dVzv8ZORkCj72NeIt1wesqPTZeZzz6d+7Pyu7xOuMF+lVduH1BYJ8DvvhLzuo7C1bNraCkoIQmTZogryAP72Pf4+y9s9gasfVb2fYt29frsyMIElxC5HNREeeiyfft2QXDh/RldY67lzcSEpM5cw+a6mr1HgKiOkf5DcM3QFFeEQC+/bcyTiWfwpGyI5CSrHzHVGZOJrwivSo9tqfHHozt9+PMl5ysHORk5aClpoW2Nm0xsf9EvAp7hS2+W6pcqqkJBYUFKCorgt9oP3Sw6wA1ZbUfXxY8SSjKK0JRXhHNDZqD14SHUZdGVXo9WWlZoT8rp5+cMO/5POyM3sm8zYe6wz3UHQAwzXAaxncdjw72Hap1kPe954s9H/ZUPtvRai1WTF7x3Qwjj8eDnpYeZo2chYLiAix9srTSc+OT4ysdtGMTY2tVN7am/9uhqaUqOMhoWnZapX8v45dhy8UtAs9bNXZVpTtQq7Lbydqp0r+HRYdh5N8jBX+Y9D6ACQMm/PB7qs1U0cG+A36y/Qn9nvZD3xNf3n8tjFrU67MjCBJcQsTDywcfkz5xSKiosg4B4X89AL5XbnOqXpe6OkO5mVK92hAQGCDw5TxWZyy6O3b/9v8yTWXQSb7Tl51SlZCdmw0NVQ2BxwQRkxKD0rJSgWLtW2eVlISjrSNO2p4Uej3Iy8nj2u/XWJ2joaIh8JiBpoHQbZSSlMIfM/6A1H6p72Y4mHIg/gAOHDuA9hfb47chv6F3+96VbvvPys3Cr1d+rfQa042m49dffq0y/EVnu87Ak8qPZedX3g7C4gQnvl9ksQh92vSBqZ4pVJqpQE5GDrIysgJ3gqqrqAu8VlJm5X6Ij149wqGEQ5Ue29ZpG6xMrVjbbWViVamw+/OC4A+cvU57MWXIlCp3uTZp0gR9OvbBHak7cDrsBCNdo3p9dgRBgktIXL52F+ERMbAwM+GMTS6/jEEzJUXG5ZM+peL4WV9O3UObVtZw6tq+Xm3IycvBr+d/FXh8+YjlP4ggB10HPIqsXHBl5GQIFFzVzcLEb47HxC4TYWNmAz0tPUjy6r9rFnwuQHJqMtKz05Gek45PmZ+QkpWClNwUxGTE4H7WfYHnGusai8QmBXkFuM91R5+nffBf3/+yClD7lacFT9H/ZH8sC16G36b+9sNs1+1ntxFTVvnOu0XDFlUba0yyCftndz9McF3+d/p/q5xd/TfKSsrQ5+njI//jD8eiUn9MwVP4uRDrLlS+lOgg64BfBv5SI7tNdH983zx/8xz74/ZXWn6E5ghMHjiZcUiRHo49UOFYUe/PjiBIcAmJQf16YFC/Hg36HnS1NXHCZws9zH9x/NpxgY7yK21XolXLVj8KCXVjQIBveVpWGlqaVJ4eRkdTB80lmwscDE4ln8KpM19ifFlJW2Gc7Tg4Wjiy9j2qDeXl5YhOiMbjN49xK+QWjiUeq/G1DLVFF7VdkieJfp36oVubbnge8hy+T3yx5T379u0e6g6543JYM33Nd4P85ZeXBZ5js82mVrZX5geYX5gvUIRM0pvESmwBAK8JDwMMB1QaYuF+6n1UVFR8d79XHl7Bndw7lV7LY6QHlJUq3yxSld3t5dtDU13zh7+ffXBWoN3z+s/7wfmd9QdyHT87giDBRRDVEBUXhbn3BOflmzWk8mjz2qqCg5t+She87CzbVBaeQzwx/MLwam0LLQnF6pergf9P0TjNcBqm9Z6Gn+x+EsnMF5/Px8NXD7H18lZcSr9U6+uN1RlbZRBKYSErI4tubbuhW9tuWJW9CqExoXgU8gj7gvYJFLb/Zu3rtRgRNQI25l8G4/SsdBz+eFh0Hz+VOLTHJwsOx9HdqnuNfsdG3wb48OPfP/I/oqCwAAryCgC+ZBVYdHlR5QLIdB66OQpO6F2V3cNth6OJxPeb4HPycrAtYpvAcyr7wGFDfTw7gmADhYUgxI4yfhk8znkIPO7d07vSuD4AoKEseMkwLrXq0BBDug/B7u67Wdt7IP4AOu/vDNftrsjMyRRqXeTk5WD5nuXofqi7UMQWAPS06lnnz1RVWRWdHTpj+eTlCHUPRbBrMHZ02QF9XvW7eJ+9e/bt3ykZKSKzUVFCsdLMABHxEQLPaWlUs4TahpqCZxjzCv+3s/Tk9ZOVLj0CwJLRS8BrIji1TVV22ze3/1HspXwUWH6E5ohap6uqj2dHEGygGS5C7AgIDKgyorXLbRe43GYfiDUsKazK47wmPMwaOQud7Drh4LWDrB2/d8fsRvHeYuxZtIdV/jhBFH4uxIK/FlQ5KzDPdB66WHeBgZYB1JqpQUleCQryCjh14xRcblVeR5bGlvX6fJtKN4WdhR3sLOwwof8EHPA7IHDnGQBEf4quVIwIm3nW8yrdHfky8qXAc2o6yOuqC56NycnPgY6GDj4kfsD8B/MrLXO432EY6xlX+RtV2W1mYPbD39Kz0wWXVzerdf3Wx7MjCBJcBCGA7LxsLD+/XCTXvpxwGfxyfpWzAgBga2GLLRZbsDR1KV6Fv8KDkAfYFbZLYEyrf3Ig/gBmvZ/1XS67mnLi+gmBYmu60XSsnrD6ux1g/+Tuu7sCrysqh/maoKKkggVjF+Dyu8sC4zIVlxZ/+3d+geCE9C/nvBR6Xr3SslKcCK08OKeDrMMPgUaZoqEmeCY2Jy8HFRUV2Htpb6XHeyv3xsieI2tst6aEJvS09H4U+EWFAq8nIyVT67qs62dHEGyhJUVCrDh+9TiCPgeJ5NqpFanIyc1hPguhqYuBXQdi05xNSPFMQfiScFwYfqHaiOqRCbWPCJ+TlyNwhspC2gIeMz0Eiq2s3CyBEbztmtqxSuJdHfde3MPkPyYjKSWp5l+VPEl0MOwg8LiOis63f0tLC97FVtUMTU1JTE0U6G823Go4mjSp2StarZmawGOZuZl4Hf4am0MrTyr9+5jfq53NqcpuQVkQmkoJzowQnR5d67qs62dHECS4CEIAEbERmHd/nkh/498+VmX8MnRd0RUv3r2o8jzZprJoYdICw5yG4fCKwzg1+JTAsmX8MqHUhSBGtxwNFSUVgcc/JH4QeGyUzahqZ/jYEBobiqOJR9F7c288fv0Y5RXsE3aXlpXiYexDgcetjf+X+L2qnWgXn1wEn88XanupKvFzK7OaO5Eryiuik3ynSo99TPsIzwuelR5bY7+G0expTRJWV+WjdSzxGNIy0xjdW1xSHAatGYTI2O8/POr62REECS6CECBSPM96ivx3/h3JOzktGQ/yH8BxtyM8j3lWubPrKxISErAztxN4vKqdkoxnVtITBR4rKSsReCwrNwv+TwTnzmtt2lqo9Xk39MvSZWhJKDr5dMLsLbMRFBaE8nJmwqu8ohynr5/+lhKpMhws/7fUVJXP1J4Pe3DsyjHGA3dxSTEC3wZi/tb5uBtY+RJsVYmfTfVNa1V3XUy6VPr3JXeWVDpDqc/Tx5xhcxjFwapJwmp9rao3MBz0P1hl3Zbxy3Dj8Q04uTvhftb9Hza21PWzIwi2kA8XIRbcfX4X3nGVp2dqLtkcgf8N/Jb8tzqW/rUUf4ZVHi37U8b3oSFik2K//dvtqRvcnrphcYvFGOA4AGaGZlBXUYeMtAyaNGmC0rJS5OTlIDIuEp6+gsWhjZlNreujuKRY4DH3UHd0vd8VHe07QlFBEeXl5UhOS8aj4EdYfX11lSEXTA1MhfbMsvOycTb1+7hN+z7sw76/9mGw2mCMaz8OliaW0NHQQTOFZl+CWkoAJSUlyMnLwYfEDzhz70yVmxO8e3p/5yelpKCEta3WYu3rtZWWn3J9Ch5HPMaE7hNgZmAG1WaqkJaWRjm/HEXFRcjOz0ZcUhyCo4Lx15O/EFoSCgBYPu5Hv8FqEz/XMpaZhY4FEPLj3wX5Cu74eQe01Kv3GatpwmpNNU3MMpklMLPD8mfLkZmXiQm9JsBYzxjysvIoLi1Gbl4u3ka+xZGAIzia+CWX5hLLJT/E7KrLZ0cQJLgIorKBOzcbS88J3qX259A/GYstADBUEzwQJqQmfPf/4XHhP5TZ8n5LjQJ1AoBnB0/oatY+HpCKokqVxwedGQScYX9dA23hpfRJ+JQg8Jhfhh/8/P1qdf0ZJjMwaeCP/nLTBk4TOGh/E31V7HL9N46yjtDR1Pnh71UlfnYxcqn1rjh9TeaJ7cfqjMWAzgMYla1pwmoAmD1oNvbs2CPw+ObQzQJ9y/5JhxaV++TV1bMjiJpAS4pEo+fY1WN4U/ym0mP9VfujX8d+rK6npSJ4FuB90vvv/v9++H2h3cc0w2mYPXy2UK5laSL80A0uRi6Ql5UX2vWiE6JF1iYWWSzCJudNlTp3G+gY4Pr/tXc/L02GARzAv2LYZJrl/LG06dzbZhozKFJLqTRUpENZmCAJgVBhFOis8LAgvEwiRKjo4rWD6B+Q+COQFJQ82ASdm20zNl1GramHOqyDGLr27vci4vs56/M8r8/A77b3fb7Nb2I21/UT1/3e1xao+LmyqDLqeeWy0L961jfpg9behLJuscLqHSWFJXh54WXU1+ZbWP23946IgYvINwB9XBQ9awgAHl97HHadSEaaeDnwyKcReL3b/W6eTU9U9Ti7PS1/iuf3n8fsLCDFYQX6KvvC/r369Pq4hoTdzA5zzF8Pqn0qDFweQE9bDw6liX/KV3u2FqMto1DtU0U950m1/+MIAhU/iwWKsF6nAUqsd+ut6EXx0eKQxw23sNrXrYZbeHH+RVTXJvYE7d/aOyIGLqJdgp0of099D6Xa0rDHDfSP2vTDBPfG9tEQkiQJ3t58i3ZNe8TXoC/RY0G3gM4bnUiWJMf073P76m0YSg0hB62ZOzNoPdcq+jORnooupqO5Awu6BfTX9ONS+qWoxmrIbMDglUHMds+isabxj1Jyf6rLqjGpn8SzM8+QmpAa0ZxDDUOiT/0FKn6OxVlmsoOy4IEiSDl1uOv2V1jtKzExEW2NbZi9O4vmw81hza0r0mH6znTQfsl47x1RJBK8O2/Hif4zw5PDqHtdJx6OHpigzleHPe7yyjKEHvGbwy2PLFAp9r67dnvcsDqssK/aYVu1YdGxCKfHCbvHDucPJzRSDXJScyBkCCg8UghVrgrHCo7FvZPQ6/XCuGTE2PsxjC+OY+rLFFxe1/anFUnFuJh/EfWn6lF1ugqS/RJ0veqCweg/pK09WUOWLCtu63R9ccHqtMLx2QHbmg2WVQvWt9bh2nTBtGnCgcQDKEgpQKY0E0qZEkKOAEWWAoJCQG5WbkhP34lxe9yYN89j6dMS5qxzWPm6AqvH+nvv5FI5NNkaKLOVEHIFCAoB8gy56JwbWxtIfeg/CFRIKzBhmIhqvTuaupswsCZ+M95oyyiqy6pDHi/Qusul5XhnePdHh2KwfTXbzPhg+QCj1Yh5xzzM38349vMbhBQBeWl50B7R4rjyOLRqbUg39cd774gYuIiIiIj+UfxKkYiIiIiBi4iIiIiBi4iIiIgYuIiIiIgYuIiIiIgYuIiIiIiIgYuIiIiIgYuIiIiIgYuIiIiIGLiIiIiIGLiIiIiIaI9fI3jJT98ZGL0AAAAASUVORK5CYII=;" vertex="1" parent="1">
          <mxGeometry x="40" y="120" width="604" height="187" as="geometry" />
        </mxCell>
        <mxCell id="RjolR3DCXdXk4UDOej0u-2" value="" style="image;aspect=fixed;perimeter=ellipsePerimeter;html=1;align=center;shadow=0;dashed=0;spacingTop=3;image=img/lib/active_directory/internet_cloud.svg;" vertex="1" parent="1">
          <mxGeometry x="620" y="240" width="126.98" height="80" as="geometry" />
        </mxCell>
        <mxCell id="RjolR3DCXdXk4UDOej0u-3" value="" style="endArrow=async;endFill=1;endSize=12;html=1;rounded=0;fillColor=#f8cecc;strokeColor=#b85450;strokeWidth=2;" edge="1" parent="1">
          <mxGeometry width="160" relative="1" as="geometry">
            <mxPoint x="510" y="284.85" as="sourcePoint" />
            <mxPoint x="670" y="284.85" as="targetPoint" />
          </mxGeometry>
        </mxCell>
        <mxCell id="RjolR3DCXdXk4UDOej0u-4" value="" style="endArrow=async;endFill=1;endSize=12;html=1;rounded=0;fillColor=#d5e8d4;strokeColor=#82b366;strokeWidth=2;" edge="1" parent="1">
          <mxGeometry width="160" relative="1" as="geometry">
            <mxPoint x="530" y="270.85" as="sourcePoint" />
            <mxPoint x="690" y="270.85" as="targetPoint" />
          </mxGeometry>
        </mxCell>
        <mxCell id="RjolR3DCXdXk4UDOej0u-5" value="" style="endArrow=async;endFill=1;endSize=12;html=1;rounded=0;fillColor=#fff2cc;strokeColor=#d6b656;strokeWidth=2;" edge="1" parent="1">
          <mxGeometry width="160" relative="1" as="geometry">
            <mxPoint x="533" y="298.85" as="sourcePoint" />
            <mxPoint x="693" y="298.85" as="targetPoint" />
          </mxGeometry>
        </mxCell>
      </root>
    </mxGraphModel>
  </diagram>
</mxfile>
